<svg width="68" height="68" viewBox="0 0 68 68" fill="none" xmlns="http://www.w3.org/2000/svg">
<path d="M26.3472 64.8334C24.8364 59.9077 22.5578 56.2339 19.5099 53.8151C14.9389 50.1875 7.67607 52.443 4.99357 48.6998C2.31107 44.9566 6.87286 38.0746 8.47311 34.0139C10.0749 29.9531 2.33728 28.5179 3.2407 27.3647C3.84195 26.5954 7.75315 24.3785 14.9712 20.7109C17.0217 9.01577 24.5959 3.16669 37.697 3.16669C57.347 3.16669 64.8334 19.8259 64.8334 30.4234C64.8334 41.0177 55.7684 52.4322 42.8554 54.8942C41.7007 56.5746 43.3657 59.8892 47.8504 64.8334" stroke="#FFD728" stroke-width="4.667" stroke-linecap="round" stroke-linejoin="round"/>
<path d="M27.0625 19.3542C26.0543 23.2608 26.3534 26.0049 27.9613 27.5852C29.5677 29.1638 32.3057 30.1983 36.1753 30.6839C35.2966 35.7236 36.368 38.087 39.3866 37.7756C42.4052 37.4657 44.2197 36.2108 44.8287 34.0139C49.5462 35.3397 52.1038 34.2297 52.5 30.6839C53.0936 25.3652 50.2261 21.124 49.0498 21.124C47.875 21.124 44.8287 20.9807 44.8287 19.3542C44.8287 17.7277 41.2705 16.8104 38.0592 16.8104C34.848 16.8104 36.7797 14.6444 32.3705 15.5C29.4305 16.0704 27.6607 17.3547 27.0625 19.3542Z" stroke="#FFD728" stroke-width="4" stroke-linejoin="round"/>
<path d="M44.0208 36.3125C42.453 37.2853 40.3023 38.9025 39.3958 40.1667C37.1311 43.3271 35.295 45.2511 34.8942 47.2707" stroke="#FFD728" stroke-width="4" stroke-linecap="round"/>
</svg>
