<svg width="74" height="74" viewBox="0 0 74 74" fill="none" xmlns="http://www.w3.org/2000/svg">
<path d="M37 2C30.0625 2 25.4375 6.625 25.4375 11.25C25.4375 18.1875 27.75 22.8125 30.0625 25.125V27.4375H43.9375V25.125C46.25 22.8125 48.5625 18.1875 48.5625 11.25C48.5625 6.625 43.9375 2 37 2ZM27.8078 11.4422L37 14.502L46.1922 11.4422L40.5266 25.602L38.0984 24.648L41.6828 15.6871L37 17.248L32.3172 15.6871L35.9016 24.648L33.4734 25.602L27.8078 11.4422ZM15.7684 22.8703C12.3863 23.3039 9.32227 27.2785 9.32227 32.3949C9.32227 35.2277 10.3051 37.7281 11.7359 39.4625L13.4559 41.5148L10.8109 42.0062C8.94649 42.3676 7.58789 43.3504 6.41719 44.9547C5.24648 46.559 4.35039 48.7848 3.72891 51.3719C2.60156 56.0258 2.34141 61.7203 2.3125 66.75H8.49844L8.82219 71.0859H24.5125L24.8016 66.75H30.6984C30.6984 61.6625 30.6406 55.8957 29.6145 51.184C29.0363 48.5969 28.1836 46.3711 26.9984 44.7812C25.8133 43.1914 24.3824 42.2086 22.2867 41.8906L19.6129 41.4715L21.3039 39.3469C22.677 37.627 23.602 35.1555 23.602 32.3949C23.602 26.9316 20.191 22.8848 16.4621 22.8848L15.7684 22.8703ZM56.7574 22.8703C53.3754 23.3039 50.3113 27.2785 50.3113 32.3949C50.3113 35.2277 51.2941 37.7281 52.725 39.4625L54.4449 41.5148L51.8 42.0062C49.9355 42.3676 48.577 43.3504 47.4062 44.9547C46.2355 46.559 45.3395 48.7848 44.718 51.3719C43.5906 56.0258 43.3305 61.7203 43.3016 66.75H49.4875L49.8055 71.0859H65.5016L65.7906 66.75H71.6875C71.6875 61.6625 71.6297 55.8957 70.6035 51.184C70.0254 48.5969 69.1727 46.3711 67.9875 44.7812C66.8023 43.1914 65.3715 42.2086 63.2758 41.8906L60.602 41.4715L62.293 39.3469C63.666 37.627 64.591 35.1555 64.591 32.3949C64.591 26.9316 61.1801 22.8848 57.4512 22.8848L56.7574 22.8703ZM30.0625 29.8945V32.4961H43.9375V29.8945H30.0625ZM32.375 34.8086V37.4102H41.625V34.8086H32.375Z" fill="white"/>
</svg>
