<svg width="74" height="74" viewBox="0 0 74 74" fill="none" xmlns="http://www.w3.org/2000/svg">
<path d="M44.2229 43.188L47.5043 43.5324V70.2422L38.4405 60.5637V45.1659L41.073 46.4515L44.2229 43.188ZM29.777 43.188L26.4938 43.5324V70.2422L35.5575 60.5637V45.1659L32.9252 46.4515L29.777 43.188ZM54.6335 26.4541L55.6954 30.1504L52.5077 32.2996L52.2408 36.1399L48.5104 37.0685L46.9491 40.5826L43.1248 40.1787L40.4545 42.9373L37 41.2497L33.5454 42.9373L30.8752 40.1696L27.0509 40.5735L25.4895 37.0595L21.7591 36.1399L21.4922 32.3049L18.2954 30.1485L19.3575 26.4524L17.1036 23.3386L19.3647 20.2283L18.2954 16.5394L21.485 14.3903L21.7519 10.5551L25.4895 9.63561L27.0509 6.12162L30.8752 6.52544L33.5454 3.75781L37 5.4455L40.4545 3.75781L43.1248 6.52544L46.9491 6.12162L48.5104 9.63561L52.2408 10.5642L52.5077 14.3992L55.6954 16.5484L54.6335 20.2446L56.8963 23.3386L54.6335 26.4541ZM47.5205 23.3386C47.5205 21.2735 46.9082 19.2548 45.7609 17.5378C44.6136 15.8207 42.9829 14.4825 41.075 13.6922C39.1671 12.9019 37.0677 12.6951 35.0423 13.098C33.0169 13.5009 31.1565 14.4953 29.6962 15.9556C28.236 17.4158 27.2416 19.2762 26.8387 21.3016C26.4358 23.327 26.6426 25.4264 27.4329 27.3343C28.2231 29.2422 29.5614 30.8729 31.2785 32.0202C32.9955 33.1675 35.0142 33.7798 37.0793 33.7798C39.8472 33.7755 42.5004 32.6741 44.4576 30.7169C46.4148 28.7597 47.5162 26.1065 47.5205 23.3386ZM37.0793 15.7821C35.5848 15.7821 34.1239 16.2253 32.8812 17.0556C31.6386 17.8859 30.6701 19.066 30.0981 20.4467C29.5262 21.8275 29.3766 23.3468 29.6681 24.8126C29.9597 26.2784 30.6793 27.6248 31.7361 28.6816C32.7928 29.7384 34.1392 30.4581 35.605 30.7496C37.0708 31.0412 38.5902 30.8916 39.9709 30.3197C41.3517 29.7478 42.5318 28.7793 43.3621 27.5367C44.1925 26.2941 44.6357 24.8331 44.6357 23.3386C44.63 21.3368 43.8318 19.4187 42.4158 18.0037C40.9998 16.5887 39.0811 15.7919 37.0793 15.7876V15.7821Z" fill="#FFD728"/>
</svg>
