<svg width="61" height="61" viewBox="0 0 61 61" fill="none" xmlns="http://www.w3.org/2000/svg">
<path d="M53.375 20.3333C49.5625 20.3333 47.5292 23.8917 48.5458 26.6875L39.3958 35.8375C38.6333 35.5833 37.6167 35.5833 36.8542 35.8375L30.2458 29.2292C31.2625 26.4333 29.2292 22.875 25.4167 22.875C21.8583 22.875 19.5708 26.4333 20.5875 29.2292L8.89582 40.6667C6.09999 39.9042 2.54166 41.9375 2.54166 45.75C2.54166 48.5458 4.82916 50.8333 7.62499 50.8333C11.1833 50.8333 13.4708 47.275 12.4542 44.4792L23.8917 32.7875C24.6542 33.0417 25.6708 33.0417 26.4333 32.7875L33.0417 39.3958C32.2792 41.9375 34.3125 45.75 38.125 45.75C41.9375 45.75 43.9708 42.1917 42.9542 39.3958L52.1042 30.2458C54.9 31.0083 58.4583 28.975 58.4583 25.4167C58.4583 22.6208 56.1708 20.3333 53.375 20.3333ZM38.125 22.875L40.4125 17.5375L45.75 15.25L40.4125 12.9625L38.125 7.625L35.8375 12.9625L30.5 15.25L35.8375 17.5375L38.125 22.875ZM8.89582 27.9583L10.1667 22.875L15.25 21.6042L10.1667 20.3333L8.89582 15.25L7.62499 20.3333L2.54166 21.6042L7.62499 22.875L8.89582 27.9583Z" fill="#FFD728"/>
</svg>
