<svg width="62" height="64" viewBox="0 0 62 64" fill="none" xmlns="http://www.w3.org/2000/svg">
<path d="M32.7416 14.7285H29.2656C28.9477 14.7285 28.6875 14.9887 28.6875 15.3066V35.2014C28.6875 35.3893 28.7742 35.5627 28.926 35.6711L40.8715 44.3936C41.1317 44.5815 41.493 44.5309 41.6809 44.2707L43.7477 41.4524C43.9428 41.185 43.885 40.8236 43.6248 40.643L33.3197 33.1924V15.3066C33.3197 14.9887 33.0596 14.7285 32.7416 14.7285ZM48.6256 20.1629L59.9569 22.9307C60.3182 23.0174 60.6723 22.7428 60.6723 22.3742L60.7301 10.7033C60.7301 10.2191 60.1737 9.94454 59.7979 10.2481L48.4088 19.144C48.3227 19.2105 48.2572 19.3001 48.2197 19.4022C48.1823 19.5044 48.1744 19.6151 48.1971 19.7215C48.2197 19.828 48.272 19.9259 48.3478 20.0039C48.4236 20.082 48.5199 20.1371 48.6256 20.1629ZM60.7445 41.9221L56.6471 40.5129C56.5042 40.4639 56.3479 40.4728 56.2115 40.5376C56.0751 40.6025 55.9695 40.7181 55.9172 40.8598C55.7799 41.2283 55.6354 41.5897 55.4836 41.951C54.1973 44.9934 52.3545 47.7322 49.9987 50.0809C47.669 52.4178 44.908 54.2805 41.8688 55.5658C38.7203 56.8969 35.336 57.5802 31.9178 57.5748C28.4635 57.5748 25.1176 56.9027 21.9668 55.5658C18.9276 54.2805 16.1666 52.4178 13.8369 50.0809C11.4883 47.7322 9.64553 44.9934 8.35197 41.951C7.02819 38.8008 6.34996 35.417 6.35744 32C6.35744 28.5457 7.02951 25.1926 8.36642 22.0418C9.65275 18.9994 11.4955 16.2606 13.8514 13.9119C16.1811 11.575 18.9421 9.71225 21.9813 8.42696C25.1176 7.09005 28.4707 6.41798 31.925 6.41798C35.3793 6.41798 38.7252 7.09005 41.876 8.42696C44.9152 9.71225 47.6762 11.575 50.0059 13.9119C50.743 14.6563 51.4367 15.4295 52.0727 16.2461L56.3942 12.8641C50.7069 5.59415 41.8543 0.918563 31.9106 0.92579C14.5957 0.933016 0.691815 14.9959 0.865253 32.318C1.03869 49.3365 14.8776 63.0742 31.925 63.0742C45.3303 63.0742 56.7483 54.5758 61.0987 42.6736C61.2071 42.3701 61.0481 42.0305 60.7445 41.9221Z" fill="white"/>
</svg>
