<svg width="74" height="74" viewBox="0 0 74 74" fill="none" xmlns="http://www.w3.org/2000/svg">
<path d="M46.25 16.65C46.25 19.1033 45.2755 21.4561 43.5408 23.1908C41.806 24.9255 39.4533 25.9 37 25.9C34.5468 25.9 32.194 24.9255 30.4593 23.1908C28.7246 21.4561 27.75 19.1033 27.75 16.65C27.75 14.1968 28.7246 11.844 30.4593 10.1093C32.194 8.37458 34.5468 7.40002 37 7.40002C39.4533 7.40002 41.806 8.37458 43.5408 10.1093C45.2755 11.844 46.25 14.1968 46.25 16.65ZM64.75 18.5C64.75 20.4626 63.9704 22.3448 62.5826 23.7326C61.1948 25.1204 59.3126 25.9 57.35 25.9C55.3874 25.9 53.5052 25.1204 52.1174 23.7326C50.7297 22.3448 49.95 20.4626 49.95 18.5C49.95 16.5374 50.7297 14.6552 52.1174 13.2674C53.5052 11.8797 55.3874 11.1 57.35 11.1C59.3126 11.1 61.1948 11.8797 62.5826 13.2674C63.9704 14.6552 64.75 16.5374 64.75 18.5ZM16.65 25.9C18.6126 25.9 20.4948 25.1204 21.8826 23.7326C23.2704 22.3448 24.05 20.4626 24.05 18.5C24.05 16.5374 23.2704 14.6552 21.8826 13.2674C20.4948 11.8797 18.6126 11.1 16.65 11.1C14.6874 11.1 12.8052 11.8797 11.4174 13.2674C10.0297 14.6552 9.25002 16.5374 9.25002 18.5C9.25002 20.4626 10.0297 22.3448 11.4174 23.7326C12.8052 25.1204 14.6874 25.9 16.65 25.9ZM22.2 34.225C22.2 31.672 24.272 29.6 26.825 29.6H47.175C49.4135 29.6 51.282 31.191 51.7075 33.3H49.95C47.7906 33.2998 45.699 34.055 44.038 35.435C42.3769 36.8149 41.251 38.7325 40.8554 40.8554C38.7325 41.251 36.8149 42.3769 35.435 44.038C34.055 45.699 33.2998 47.7906 33.3 49.95V64.75C33.3 65.231 33.337 65.7009 33.4073 66.1597C30.2062 65.3574 27.3649 63.5086 25.3344 60.9071C23.304 58.3055 22.2008 55.1002 22.2 51.8V34.225ZM66.4446 40.8554L66.6 40.885V34.225C66.6 31.672 64.528 29.6 61.975 29.6H54.0977C54.8229 30.6804 55.3002 31.9421 55.4482 33.3H57.35C59.5095 33.2998 61.601 34.055 63.2621 35.435C64.9231 36.8149 66.049 38.7325 66.4446 40.8554ZM18.5 34.225C18.5 32.5119 19.018 30.9246 19.9023 29.6H12.025C9.47202 29.6 7.40002 31.672 7.40002 34.225V48.1C7.39985 49.6841 7.73872 51.2498 8.39385 52.692C9.04898 54.1342 10.0052 55.4195 11.1983 56.4615C12.3913 57.5035 13.7936 58.2781 15.3109 58.7332C16.8281 59.1883 18.4252 59.3134 19.9948 59.1001C19.0049 56.7939 18.4962 54.3098 18.5 51.8V34.225ZM44.4 44.4V42.55C44.4 41.0781 44.9848 39.6664 46.0256 38.6256C47.0664 37.5848 48.4781 37 49.95 37H57.35C58.822 37 60.2336 37.5848 61.2745 38.6256C62.3153 39.6664 62.9 41.0781 62.9 42.55V44.4H64.75C66.222 44.4 67.6336 44.9848 68.6745 46.0256C69.7153 47.0664 70.3 48.4781 70.3 49.95V55.5H62.9V53.65C62.9 53.1594 62.7051 52.6888 62.3582 52.3419C62.0112 51.9949 61.5407 51.8 61.05 51.8C60.5594 51.8 60.0888 51.9949 59.7419 52.3419C59.3949 52.6888 59.2 53.1594 59.2 53.65V55.5H48.1V53.65C48.1 53.1594 47.9051 52.6888 47.5582 52.3419C47.2112 51.9949 46.7407 51.8 46.25 51.8C45.7594 51.8 45.2888 51.9949 44.9419 52.3419C44.5949 52.6888 44.4 53.1594 44.4 53.65V55.5H37V49.95C37 48.4781 37.5848 47.0664 38.6256 46.0256C39.6664 44.9848 41.0781 44.4 42.55 44.4H44.4ZM48.1 42.55V44.4H59.2V42.55C59.2 42.0594 59.0051 41.5888 58.6582 41.2419C58.3112 40.8949 57.8407 40.7 57.35 40.7H49.95C49.4594 40.7 48.9888 40.8949 48.6419 41.2419C48.2949 41.5888 48.1 42.0594 48.1 42.55ZM62.9 61.05V59.2H70.3V64.75C70.3 66.222 69.7153 67.6336 68.6745 68.6745C67.6336 69.7153 66.222 70.3 64.75 70.3H42.55C41.0781 70.3 39.6664 69.7153 38.6256 68.6745C37.5848 67.6336 37 66.222 37 64.75V59.2H44.4V61.05C44.4 61.5407 44.5949 62.0112 44.9419 62.3582C45.2888 62.7051 45.7594 62.9 46.25 62.9C46.7407 62.9 47.2112 62.7051 47.5582 62.3582C47.9051 62.0112 48.1 61.5407 48.1 61.05V59.2H59.2V61.05C59.2 61.5407 59.3949 62.0112 59.7419 62.3582C60.0888 62.7051 60.5594 62.9 61.05 62.9C61.5407 62.9 62.0112 62.7051 62.3582 62.3582C62.7051 62.0112 62.9 61.5407 62.9 61.05Z" fill="#FF80D9"/>
</svg>
